<?xml version="1.0" standalone="no"?>
<!DOCTYPE svg PUBLIC "-//W3C//DTD SVG 20010904//EN"
 "http://www.w3.org/TR/2001/REC-SVG-20010904/DTD/svg10.dtd">
<svg version="1.0" xmlns="http://www.w3.org/2000/svg"
 width="120.000000pt" height="120.000000pt" viewBox="0 0 120.000000 120.000000"
 preserveAspectRatio="xMidYMid meet">
<metadata>
Created by potrace 1.11, written by Peter Selinger 2001-2013
</metadata>
<g transform="translate(0.000000,120.000000) scale(0.100000,-0.100000)"
fill="#000000" stroke="none">
<path d="M467 1153 c-138 -31 -295 -148 -361 -268 -127 -232 -89 -507 97 -690
235 -230 604 -217 824 29 187 211 188 541 0 751 -141 159 -353 226 -560 178z
m131 -553 l-3 -255 -67 -1 -68 -1 -1 46 c-1 59 -1 419 0 448 1 21 5 22 71 20
l70 -1 -2 -256z m144 234 c56 -29 96 -114 83 -177 -16 -72 -75 -131 -139 -139
l-29 -3 -1 155 c-1 85 2 163 7 173 9 19 27 17 79 -9z"/>
</g>
</svg>
